<?xml version="1.0" encoding="UTF-8"?>
<svg version="1.1" xmlns="http://www.w3.org/2000/svg" width="794" height="821">
<path d="M0 0 C6.96282637 1.18282042 13.36523004 2.99169706 19.9375 5.5625 C20.84064941 5.91256104 21.74379883 6.26262207 22.67431641 6.62329102 C32.00710775 10.30283072 41.06944694 14.43471069 50 19 C50.73637695 19.36738281 51.47275391 19.73476562 52.23144531 20.11328125 C54.34397918 21.18325366 56.42348635 22.29946463 58.5 23.4375 C59.42594971 23.90337524 59.42594971 23.90337524 60.37060547 24.37866211 C64.04202538 26.49318775 65.51323894 28.59690047 66.7578125 32.49609375 C67.20653026 34.32256227 67.61893287 36.15822838 68 38 C68.20141602 38.93932373 68.40283203 39.87864746 68.61035156 40.84643555 C69.26011999 44.09765489 69.82750272 47.35500378 70.375 50.625 C70.58922607 51.87539063 70.80345215 53.12578125 71.02416992 54.4140625 C72.43213556 62.96454269 73.38180293 71.51809855 74.15234375 80.1484375 C74.24968811 81.20535797 74.34703247 82.26227844 74.44732666 83.35122681 C74.932256 88.639001 75.38184829 93.92564914 75.77294922 99.22119141 C76.79035082 111.45599312 78.79620267 119.93533013 86 130 C86.80706653 131.28432577 87.60827868 132.57239095 88.3984375 133.8671875 C89.05070313 134.85976563 89.70296875 135.85234375 90.375 136.875 C91.12971643 138.03462937 91.88358748 139.19480926 92.63671875 140.35546875 C93.02005371 140.94505371 93.40338867 141.53463867 93.79833984 142.14208984 C99.29012199 150.63304112 104.68701697 159.16021177 109.44140625 168.08984375 C111.41450875 171.77395743 113.4533368 175.41887368 115.5 179.0625 C115.88341553 179.74932861 116.26683105 180.43615723 116.66186523 181.14379883 C119.30027423 185.84401087 122.09576551 190.40983065 125.1015625 194.88671875 C126.26148993 197.61506978 125.66482228 199.16939801 125 202 C123.13081909 202.03758423 123.13081909 202.03758423 121.22387695 202.07592773 C116.59259074 202.17022911 111.96144656 202.2703941 107.33032227 202.37231445 C105.32742642 202.41557739 103.32449575 202.45725847 101.3215332 202.49731445 C98.43950921 202.55522662 95.55765912 202.61886047 92.67578125 202.68359375 C91.33644279 202.70866249 91.33644279 202.70866249 89.970047 202.73423767 C85.86782367 202.83158489 82.00170912 202.98604124 78 204 C76.51755557 215.51910762 75.50316952 227.01785899 74.73904419 238.60534668 C73.38286498 258.92107537 70.96121774 278.64519232 67.03125 298.625 C66.1323185 303.23455853 65.32870137 307.85583594 64.55004883 312.48706055 C63.73235672 317.33056578 62.87543943 322.16662261 62 327 C61.8345166 327.91442871 61.6690332 328.82885742 61.49853516 329.77099609 C58.48673713 345.94824232 53.46518335 361.25142145 48.10253906 376.76074219 C46.77177212 380.6705331 45.55657863 384.60578005 44.375 388.5625 C37.47314712 410.81252922 27.54892911 430.36646822 15.22216797 450.04785156 C14.17355488 451.72278369 13.13463379 453.4037768 12.09765625 455.0859375 C7.7463893 462.06844118 3.03756046 468.78021114 -1.83154297 475.40869141 C-2.82393465 476.76021856 -3.80570974 478.11953104 -4.78515625 479.48046875 C-13.91273184 491.56047198 -25.53804735 502.16352193 -37 512 C-38.03346662 512.91172481 -39.06608314 513.82441457 -40.09765625 514.73828125 C-88.46532367 556.73339697 -152.43545143 570.45498974 -215 566.375 C-255.77769716 563.15723893 -298.71029818 547.27884957 -331.95996094 523.45019531 C-334.05422151 521.96145575 -336.16822973 520.50527966 -338.2890625 519.0546875 C-347.14946542 512.96297355 -355.47238864 506.50733678 -363.4921875 499.34472656 C-364.83927038 498.143345 -366.20000568 496.95731214 -367.5625 495.7734375 C-379.458463 485.32533842 -390.32882736 474.2069582 -399.82714844 461.54003906 C-401.51051013 459.32966322 -403.29026296 457.20189372 -405.0625 455.0625 C-418.80315328 437.83790827 -429.72067058 417.93085123 -439 398 C-439.31888184 397.32453125 -439.63776367 396.6490625 -439.96630859 395.953125 C-458.24049751 356.73578962 -467.91073005 309.42320529 -462.625 266.375 C-462.49867188 265.24449219 -462.37234375 264.11398437 -462.2421875 262.94921875 C-461.6502527 257.94736972 -461.04547515 253.63844984 -459 249 C-458.01 249 -457.02 249 -456 249 C-455.52691406 250.0415625 -455.05382812 251.083125 -454.56640625 252.15625 C-450.22861959 261.60281233 -445.56034155 270.74340304 -440.32617188 279.72314453 C-439.37761368 281.35168903 -438.43417591 282.98322026 -437.49414062 284.61669922 C-429.11102041 299.17994552 -420.5733122 312.90292378 -409.5 325.5625 C-408.94876465 326.19518799 -408.3975293 326.82787598 -407.82958984 327.47973633 C-404.71807468 331.05392635 -404.71807468 331.05392635 -401.55957031 334.58642578 C-394.8717461 341.99473499 -391.74385593 348.79220745 -388.88647461 358.28662109 C-379.61966434 388.28008236 -361.81506201 416.56753057 -340 439 C-339.45053711 439.56992676 -338.90107422 440.13985352 -338.33496094 440.72705078 C-330.95575597 448.35552537 -323.44883006 455.54587337 -315 462 C-314.46358887 462.41813965 -313.92717773 462.8362793 -313.37451172 463.26708984 C-293.14998096 478.98453777 -270.53494723 490.7087824 -246 498 C-244.85942139 498.34224609 -244.85942139 498.34224609 -243.69580078 498.69140625 C-214.30712738 507.36245847 -180.04966591 510.2807882 -150 503 C-149.30664551 502.8443457 -148.61329102 502.68869141 -147.89892578 502.52832031 C-113.64748432 494.71590412 -84.39242723 477.05168202 -60 452 C-59.2575 451.30777344 -59.2575 451.30777344 -58.5 450.6015625 C-17.07332129 411.28457576 -2.70913968 348.82506728 8 295 C8.20608887 293.99549805 8.41217773 292.99099609 8.62451172 291.95605469 C12.50924375 272.88185075 14.05741088 253.45484228 15.81027222 234.09197998 C15.98134032 232.2057457 16.15655427 230.31988853 16.33227539 228.43408203 C16.84679392 222.68870066 17.13543711 217.0176425 17.0625 211.25 C17.05573242 210.18652344 17.05573242 210.18652344 17.04882812 209.1015625 C17.03733786 207.4010026 17.01942182 205.70048781 17 204 C7.5644552 202.8852261 -1.77028343 202.93795926 -11.25878906 203.09594727 C-13.21928205 203.1263555 -15.17996789 203.14339007 -17.140625 203.16015625 C-18.86587402 203.18541382 -18.86587402 203.18541382 -20.62597656 203.21118164 C-24.40216392 202.97482838 -27.41019238 202.15712797 -31 201 C-29.70165713 196.653304 -28.0257478 193.09447218 -25.62109375 189.25390625 C-24.95215088 188.1777002 -24.28320801 187.10149414 -23.59399414 185.99267578 C-22.87516975 184.84927946 -22.15633821 183.70588763 -21.4375 182.5625 C-20.69774838 181.37529674 -19.95873926 180.18763052 -19.22045898 178.99951172 C-18.12707794 177.24001669 -17.03335561 175.48075086 -15.93733215 173.72290039 C-12.74580603 168.60388976 -9.64099349 163.43930776 -6.55859375 158.25390625 C-4.70657086 155.15452178 -2.82054067 152.0768744 -0.92582703 149.00341797 C0.62154605 146.49234951 2.16368472 143.97808086 3.70584106 141.46380615 C4.47621082 140.21101776 5.24900242 138.95971491 6.02438354 137.71002197 C7.12421144 135.93683309 8.21515832 134.15843648 9.3046875 132.37890625 C9.94390137 131.3432251 10.58311523 130.30754395 11.24169922 129.24047852 C14.89049367 122.51589525 16.51315673 117.32041222 15.83203125 109.66796875 C15.74729301 108.50517647 15.74729301 108.50517647 15.6608429 107.31889343 C14.98057532 98.61410661 13.8734295 89.96050091 12.6875 81.3125 C12.57540192 80.48284729 12.46330383 79.65319458 12.34780884 78.79840088 C10.11582066 62.29714406 7.61177618 45.9527772 3.90234375 29.7109375 C3.71631088 28.89237274 3.53027802 28.07380798 3.33860779 27.23043823 C2.40088675 23.11262962 1.44741832 18.99960815 0.46557617 14.89208984 C0.11474114 13.3812616 -0.23577798 11.87035995 -0.5859375 10.359375 C-0.75855606 9.66049164 -0.93117462 8.96160828 -1.10902405 8.24154663 C-1.55615234 6.28027344 -1.55615234 6.28027344 -2 3 C-1.34 2.01 -0.68 1.02 0 0 Z " fill="#009CF8" transform="translate(493,220)"/>
<path d="M0 0 C1.25079346 0.07178467 1.25079346 0.07178467 2.52685547 0.14501953 C13.10627461 0.79683208 23.53379315 1.87852494 33.9375 3.9375 C34.73502686 4.09508789 35.53255371 4.25267578 36.35424805 4.41503906 C41.45579753 5.49680819 46.15688803 7.06606109 51 9 C49.6691034 12.09419073 48.43242313 13.71233505 45.6484375 15.59375 C44.97006836 16.06039063 44.29169922 16.52703125 43.59277344 17.0078125 C42.8609082 17.50023438 42.12904297 17.99265625 41.375 18.5 C39.8243119 19.57116864 38.27486176 20.64413134 36.7265625 21.71875 C35.54368652 22.53666016 35.54368652 22.53666016 34.33691406 23.37109375 C19.63890421 33.61609184 6.66364375 45.03577599 -5.7578125 57.91796875 C-9.01652984 60.94392057 -11.78045232 61.14336909 -16.05859375 61.39453125 C-61.4990643 64.3534959 -99.04129014 80.24905048 -135 108 C-135.98226562 108.7528125 -136.96453125 109.505625 -137.9765625 110.28125 C-166.74587901 133.02513444 -186.87956666 165.28676558 -200.23144531 199.09716797 C-201.27407054 201.67855965 -202.42720335 204.20823711 -203.5625 206.75 C-210.8977607 224.36427734 -214.92111902 243.86449016 -217.6875 262.6875 C-217.80697998 263.49380859 -217.92645996 264.30011719 -218.04956055 265.13085938 C-219.91224189 278.62956674 -220.23800365 292.20739925 -220.25 305.8125 C-220.25100708 306.61581757 -220.25201416 307.41913513 -220.25305176 308.24679565 C-220.23514272 329.54405987 -217.781203 350.24603737 -213 371 C-212.79004395 371.92458008 -212.58008789 372.84916016 -212.36376953 373.80175781 C-204.76050177 406.87624864 -192.31991147 437.28445304 -176 467 C-175.61134766 467.71333496 -175.22269531 468.42666992 -174.82226562 469.16162109 C-165.87271395 485.40979726 -153.92540677 499.76926866 -141 513 C-140.15695313 513.86882813 -139.31390625 514.73765625 -138.4453125 515.6328125 C-122.73963304 531.9774956 -122.73963304 531.9774956 -105 546 C-103.89823361 546.76923931 -102.79667984 547.53878321 -101.6953125 548.30859375 C-85.62698912 559.3850336 -68.82337313 569.98940234 -51 578 C-50.23558594 578.34836914 -49.47117187 578.69673828 -48.68359375 579.05566406 C-25.35354989 589.54678918 -0.12052131 596.38263095 25 601 C25.8254834 601.16226074 26.6509668 601.32452148 27.50146484 601.49169922 C61.56659628 607.99339557 98.21659352 605.23312193 131.61572266 596.89404297 C133.18845947 596.50563232 133.18845947 596.50563232 134.79296875 596.109375 C135.7264917 595.87186523 136.66001465 595.63435547 137.62182617 595.38964844 C140 595 140 595 143 596 C143.4646712 600.70032795 141.85807233 604.05375048 139.75 608.125 C139.22297485 609.15802246 139.22297485 609.15802246 138.68530273 610.21191406 C130.10746883 626.63061046 119.63189284 642.3242367 106.9765625 655.87109375 C104.86662106 658.0877368 104.86662106 658.0877368 102.625 661 C95.07247914 666.75430161 82.93232345 665.27265279 73.9375 665.1875 C71.99133789 665.1865332 71.99133789 665.1865332 70.00585938 665.18554688 C62.94573821 665.15334156 56.00603917 664.89414716 49 664 C52.03793676 668.73918135 54.9246708 673.08141423 59 677 C59 677.66 59 678.32 59 679 C59.66 679 60.32 679 61 679 C63.6875 681.8125 63.6875 681.8125 66 685 C65 688 65 688 62.5859375 689.4296875 C49.07945213 695.50924904 35.65759507 699.91353443 21 702 C19.94401611 702.16387207 19.94401611 702.16387207 18.86669922 702.33105469 C7.41452425 704.02016604 7.41452425 704.02016604 2.60546875 701.98828125 C0.36678758 700.1781867 -1.23551302 698.2794291 -3 696 C-3.86536172 694.95551588 -4.73269968 693.91266726 -5.6015625 692.87109375 C-13.00303037 683.84145753 -20.0228276 674.36369046 -25.734375 664.171875 C-31.37143144 654.28429617 -35.4169288 647.85968878 -46.89501953 644.62646484 C-51.13665345 643.36410894 -55.24427139 641.70652346 -59.375 640.125 C-60.28193604 639.78275391 -61.18887207 639.44050781 -62.12329102 639.08789062 C-96.39373293 626.02311119 -128.36241256 604.84202543 -156 581 C-156.73992187 580.36191406 -157.47984375 579.72382812 -158.2421875 579.06640625 C-160.17163024 577.38879841 -162.08669439 575.69597272 -164 574 C-164.70769531 573.38511719 -165.41539062 572.77023437 -166.14453125 572.13671875 C-178.38340223 561.3592055 -189.80524327 549.95583674 -199.57226562 536.88085938 C-201.12477122 534.8356297 -202.72118676 532.83084279 -204.328125 530.828125 C-216.31577667 515.82858417 -226.893047 499.91291272 -236 483 C-236.59554687 481.91460937 -237.19109375 480.82921875 -237.8046875 479.7109375 C-279.97104155 400.55907836 -291.48739504 303.37327362 -265.11279297 200.01367188 C-263.2996132 194.2530376 -261.22536271 188.61301677 -259 183 C-258.62085449 182.04158203 -258.24170898 181.08316406 -257.85107422 180.09570312 C-244.55950316 146.81137194 -226.83182302 117.86431547 -203 91 C-201.77024445 89.58384449 -200.54098098 88.16726131 -199.3125 86.75 C-198.2088424 85.49955051 -197.10463453 84.24958657 -196 83 C-195.22398437 82.10796875 -194.44796875 81.2159375 -193.6484375 80.296875 C-192.83632812 79.37390625 -192.02421875 78.4509375 -191.1875 77.5 C-190.43855469 76.6440625 -189.68960938 75.788125 -188.91796875 74.90625 C-187 73 -187 73 -185 73 C-185 72.34 -185 71.68 -185 71 C-182.58007193 68.41771254 -179.72462131 66.25094433 -177 64 C-176.46890625 63.5580127 -175.9378125 63.11602539 -175.390625 62.66064453 C-143.58561798 36.2907837 -104.74943531 15.01292912 -64 7 C-63.19723633 6.8354834 -62.39447266 6.6709668 -61.56738281 6.50146484 C-41.53561088 2.42403244 -20.49482961 -1.18840823 0 0 Z " fill="#00AAF9" transform="translate(307,0)"/>
<path d="M0 0 C10.84057029 9.05977846 18.12810579 23.30195875 25.31640625 35.24609375 C25.89229492 36.19629395 26.46818359 37.14649414 27.06152344 38.12548828 C28.18495957 39.98456089 29.29802953 41.84994688 30.39941406 43.72216797 C30.91342773 44.57311035 31.42744141 45.42405273 31.95703125 46.30078125 C32.40546387 47.05665527 32.85389648 47.8125293 33.31591797 48.59130859 C36.42026716 52.50208152 40.59541674 53.98024572 45.234375 55.46484375 C46.78535889 55.9743457 46.78535889 55.9743457 48.36767578 56.49414062 C49.47224121 56.85572266 50.57680664 57.21730469 51.71484375 57.58984375 C75.20283881 65.51255178 96.99101551 76.30347259 117.4453125 90.25390625 C120.42359079 92.28302695 123.4593278 94.19841858 126.52734375 96.08984375 C131.72583572 99.3743107 136.55139492 103.06922341 141.3828125 106.859375 C143.83332813 108.77707911 146.3156131 110.64085044 148.828125 112.4765625 C157.75128043 119.00444199 165.98300922 125.87965808 173.90234375 133.58984375 C174.57442871 134.23614746 175.24651367 134.88245117 175.93896484 135.54833984 C184.88769285 144.17379025 193.15624772 152.91898652 200.59423828 162.87597656 C201.9288709 164.62459937 203.3086027 166.32482333 204.7109375 168.01953125 C217.42816379 183.40667246 228.63347808 199.93491469 237.87939453 217.63330078 C238.79615709 219.38674592 239.73642566 221.12785414 240.6796875 222.8671875 C246.54801841 234.03772799 251.01041959 245.85516052 255.68212891 257.56054688 C256.66218607 259.99362997 257.66337057 262.41290021 258.6953125 264.82421875 C269.06923163 289.41012896 274.16405948 315.96834164 277.59814453 342.31396484 C278.03178478 345.55826211 278.53424747 348.79162437 279.02734375 352.02734375 C280.93458533 365.68702924 281.0887139 379.28767291 281.08764648 393.05517578 C281.08982506 396.18796551 281.10802203 399.32039754 281.12695312 402.453125 C281.3412057 479.45322584 253.40838413 553.42941762 201.90234375 610.58984375 C201.33370605 611.22164551 200.76506836 611.85344727 200.17919922 612.50439453 C183.61563895 630.80613472 165.85323621 645.5699852 144.90234375 658.58984375 C144.0928125 659.09338379 143.28328125 659.59692383 142.44921875 660.11572266 C131.53659277 666.86621547 120.54467134 673.18739772 108.90234375 678.58984375 C108.2254248 678.91404297 107.54850586 679.23824219 106.85107422 679.57226562 C84.94717387 689.97902726 59.10990809 696.66656564 34.96484375 698.77734375 C33.61507446 698.89577637 33.61507446 698.89577637 32.23803711 699.01660156 C5.24531694 701.09521423 -22.89874426 700.83410666 -49.09765625 693.58984375 C-49.42765625 692.26984375 -49.75765625 690.94984375 -50.09765625 689.58984375 C-49.35213501 689.13883301 -49.35213501 689.13883301 -48.59155273 688.67871094 C-37.70374611 682.05211259 -27.47526573 675.09097644 -17.69775391 666.91357422 C-15.41355464 665.02389945 -13.06488249 663.21927808 -10.72265625 661.40234375 C-6.61120301 658.12134961 -2.94093774 654.53474464 0.7265625 650.76953125 C3.45729068 648.0339005 6.3361743 645.51002492 9.2734375 643 C10.52841948 641.91355277 11.7286003 640.7635872 12.90234375 639.58984375 C15.4792711 639.20830104 17.99820089 638.93333252 20.58984375 638.71484375 C68.79886033 633.91109833 109.82774561 615.52286287 145.578125 582.66796875 C147.17315428 581.24182492 148.81647826 579.86844845 150.49609375 578.54296875 C154.10846401 575.61085004 156.91033753 572.13700737 159.90234375 568.58984375 C160.64484375 567.73519531 161.38734375 566.88054688 162.15234375 566 C187.39966631 536.5043299 203.68187011 502.17902047 213.34814453 464.72949219 C213.70868471 463.33752122 214.07647387 461.94740095 214.45263672 460.55957031 C220.24620498 439.15744758 221.44320037 417.22894113 221.27734375 395.15234375 C221.27269104 394.03920807 221.26803833 392.92607239 221.26324463 391.77920532 C221.18381278 375.53830117 220.79904403 359.61005619 217.90234375 343.58984375 C217.69303223 342.40277832 217.4837207 341.21571289 217.26806641 339.99267578 C212.4275993 313.07721217 205.97142122 287.21175411 193.90234375 262.58984375 C193.4242627 261.61096191 193.4242627 261.61096191 192.93652344 260.61230469 C190.63527653 255.91574195 188.28440085 251.24589165 185.90234375 246.58984375 C185.57621094 245.95014648 185.25007813 245.31044922 184.9140625 244.65136719 C178.64093603 232.41127282 171.4608422 220.9827385 163.40234375 209.83984375 C162.98815186 209.26234375 162.57395996 208.68484375 162.1472168 208.08984375 C155.32729909 198.82091407 147.15111454 190.64327835 139.02734375 182.52734375 C138.14892822 181.64973389 137.2705127 180.77212402 136.36547852 179.86791992 C130.46737623 174.02547555 124.48833506 168.64694422 117.90234375 163.58984375 C116.21278143 162.17563731 114.52538217 160.75884372 112.83984375 159.33984375 C92.65674262 142.8708939 71.66352666 131.13261446 47.90234375 120.58984375 C46.56187988 119.9872876 46.56187988 119.9872876 45.19433594 119.37255859 C33.35822799 114.06791893 21.41059823 110.00207791 8.90234375 106.58984375 C8.10779785 106.36699707 7.31325195 106.14415039 6.49462891 105.91455078 C-7.84685067 101.91890008 -22.35257853 99.55601147 -37.09765625 97.58984375 C-37.99468262 97.4697998 -38.89170898 97.34975586 -39.81591797 97.22607422 C-71.48638645 93.12120956 -105.08348824 96.189857 -135.72265625 105.171875 C-138.45360537 105.65248611 -140.43376672 105.28911475 -143.09765625 104.58984375 C-141.74938934 99.23152526 -139.83216228 94.63858242 -137.22265625 89.77734375 C-136.63871094 88.68570923 -136.63871094 88.68570923 -136.04296875 87.57202148 C-129.09028947 74.85214906 -121.13227704 63.07261265 -111.09765625 52.58984375 C-109.9267923 51.17664413 -108.75993572 49.76011203 -107.59765625 48.33984375 C-103.69067718 43.82897564 -97.38551328 38.12588701 -91.22470093 37.35569763 C-90.08552719 37.27908653 -90.08552719 37.27908653 -88.92333984 37.20092773 C-88.06259857 37.14094101 -87.2018573 37.08095428 -86.31503296 37.01914978 C-85.38478302 36.95868973 -84.45453308 36.89822968 -83.49609375 36.8359375 C-82.54449371 36.77076431 -81.59289368 36.70559113 -80.61245728 36.63844299 C-77.5661134 36.43073276 -74.519408 36.22897408 -71.47265625 36.02734375 C-69.41012974 35.88776091 -67.34762933 35.74779191 -65.28515625 35.60742188 C-60.22294843 35.26374366 -55.16040845 34.9254034 -50.09765625 34.58984375 C-52.03932987 29.2098016 -55.37830918 25.89866541 -59.37304688 21.96289062 C-63.08029261 18.13872781 -63.08029261 18.13872781 -63.16796875 15.3671875 C-58.29404377 7.27362595 -40.7090787 4.7453558 -32.09765625 2.58984375 C-25.84208392 1.19663949 -19.54544153 0.0213476 -13.22631836 -1.04443359 C-11.3793838 -1.36175301 -9.54023923 -1.72379029 -7.703125 -2.09375 C-4.52257497 -2.47999371 -2.66752577 -1.7335999 0 0 Z " fill="#00A7F9" transform="translate(486.09765625,87.41015625)"/>
<path d="M0 0 C1.03898437 0.76570313 2.07796875 1.53140625 3.1484375 2.3203125 C14.7848611 11.02334718 25.95096788 20.49534426 36 31 C36.804375 31.804375 37.60875 32.60875 38.4375 33.4375 C39.283125 34.283125 40.12875 35.12875 41 36 C41.94939453 36.8971875 41.94939453 36.8971875 42.91796875 37.8125 C63.15705948 57.29934134 77.84535401 83.11547437 90.08935547 108.1640625 C91.03939122 110.07941608 92.01802158 111.97786878 93.00390625 113.875 C107.96089284 142.80154923 114.50722227 174.95579495 119 207 C119.10675049 207.75595459 119.21350098 208.51190918 119.32348633 209.29077148 C120.13170978 215.66515715 120.1922284 222.01823047 120.1875 228.4375 C120.18669434 229.57896484 120.18588867 230.72042969 120.18505859 231.89648438 C120.09245271 244.81772903 118.84966606 257.3800503 116 270 C113 269 113 269 111.37890625 266.2109375 C110.76477276 264.93643068 110.16009953 263.65734253 109.5625 262.375 C108.84940571 260.90539982 108.13445026 259.43670177 107.41796875 257.96875 C107.03044434 257.16953125 106.64291992 256.3703125 106.24365234 255.546875 C94.11976315 230.71836851 80.26474667 205.74952252 61.265625 185.44140625 C60.51796875 184.63574219 59.7703125 183.83007812 59 183 C58.45738525 182.47801025 57.91477051 181.95602051 57.35571289 181.41821289 C51.61067454 175.53640641 49.43462267 169.03424505 46.9375 161.3125 C43.81306592 151.8984221 40.32118094 142.93236891 36 134 C35.36156597 132.6330054 34.72347502 131.26585044 34.0859375 129.8984375 C26.30852399 113.88193753 17.01130969 99.16425776 5 86 C4.07242077 84.96398545 3.14534053 83.92752392 2.21875 82.890625 C-6.87757141 72.77828452 -16.30822941 63.43004989 -27 55 C-27.72703125 54.40574219 -28.4540625 53.81148438 -29.203125 53.19921875 C-69.34737301 20.86079674 -123.33128328 8.14878578 -173.9375 13.1875 C-203.25795275 16.40538403 -230.75825198 27.12926842 -255 44 C-255.67466309 44.46325684 -256.34932617 44.92651367 -257.04443359 45.40380859 C-274.99518868 57.8182417 -289.61958817 72.01260828 -302 90 C-302.64066406 90.92941406 -303.28132813 91.85882813 -303.94140625 92.81640625 C-305.70922946 95.50300533 -307.36887199 98.22817223 -309 101 C-309.3520752 101.59345215 -309.70415039 102.1869043 -310.06689453 102.79833984 C-322.00577861 123.07981551 -331.65679838 144.65056929 -339 167 C-339.25942383 167.77359863 -339.51884766 168.54719727 -339.78613281 169.34423828 C-348.26117045 195.06064625 -352.36174269 222.5420417 -356.375 249.25 C-356.49633301 250.05233063 -356.61766602 250.85466125 -356.74267578 251.68130493 C-359.49499099 270.04718817 -361.27901709 288.44291714 -362 307 C-362.05043457 308.19415527 -362.10086914 309.38831055 -362.15283203 310.61865234 C-364.8929778 377.40459336 -360.43066638 446.39592841 -343.44213867 511.2722168 C-342.97242125 514.17014763 -343.2413938 516.18420017 -344 519 C-363.42219413 516.02517203 -382.38314345 506.64277657 -399.30419922 496.95214844 C-400.75041367 496.14013629 -402.2336611 495.39467418 -403.72265625 494.6640625 C-406.15896248 493.27567746 -407.34727802 492.27738948 -409 490 C-409.65046853 487.51817331 -410.14478346 485.18487007 -410.54296875 482.6640625 C-410.72654686 481.59382591 -410.72654686 481.59382591 -410.91383362 480.50196838 C-411.16468461 479.03472157 -411.41065203 477.56663147 -411.6517334 476.0977478 C-411.96282568 474.22391567 -412.29951636 472.35437483 -412.63964844 470.4855957 C-417.3763224 444.45105075 -418.94163307 418.14019246 -420.6237793 391.76538086 C-420.83436292 388.47226066 -421.05614691 385.18181656 -421.32348633 381.89282227 C-422.25728971 370.00449911 -422.19904659 358.10518204 -422.1875 346.1875 C-422.18689575 345.03694122 -422.1862915 343.88638245 -422.18566895 342.70095825 C-422.14135729 311.52690014 -420.01013853 280.9061795 -416 250 C-415.8582132 248.90144684 -415.8582132 248.90144684 -415.71356201 247.78070068 C-408.27649555 190.38947446 -395.31998988 133.00421491 -367 82 C-366.59523438 81.26507324 -366.19046875 80.53014648 -365.7734375 79.77294922 C-359.69796721 68.81995419 -352.73065626 58.84311942 -345 49 C-344.31292969 48.11054687 -343.62585938 47.22109375 -342.91796875 46.3046875 C-340.98291403 43.83596506 -339.00560664 41.41180545 -337 39 C-336.55640137 38.46616699 -336.11280273 37.93233398 -335.65576172 37.38232422 C-322.58086102 21.74014617 -308.78156902 7.65611933 -292 -4 C-290.95070313 -4.73734375 -289.90140625 -5.4746875 -288.8203125 -6.234375 C-277.12295807 -14.23946105 -265.08670637 -20.59241644 -252.109375 -26.19140625 C-248.99308282 -27.54165953 -245.99029485 -29.01127192 -243 -30.625 C-168.56255671 -68.61111797 -64.69354867 -47.96540152 0 0 Z " fill="#00B5F9" transform="translate(645,49)"/>
<path d="M0 0 C-0.60823805 4.3708269 -1.65366788 8.49176413 -2.86547852 12.72192383 C-5.80900452 23.00392225 -8.2935876 33.36469715 -10.5625 43.8125 C-10.70999695 44.49117126 -10.8574939 45.16984253 -11.00946045 45.86907959 C-13.25222788 56.22923206 -15.37525815 66.61276852 -17.31469727 77.03442383 C-19.20821713 86.90941425 -21.2784776 93.0822861 -28.75 100 C-30.02246535 101.22486932 -31.29331859 102.45141576 -32.5625 103.6796875 C-33.46548828 104.5454541 -33.46548828 104.5454541 -34.38671875 105.42871094 C-37.47721827 108.43876767 -40.24118642 111.6894237 -43 115 C-43.71929687 115.83015625 -44.43859375 116.6603125 -45.1796875 117.515625 C-67.46804733 143.57805214 -85.78761429 173.33604013 -101 204 C-102.32 204 -103.64 204 -105 204 C-110.73533484 183.64426241 -114.81963692 163.14564975 -116 142 C-116.10997314 140.20175781 -116.10997314 140.20175781 -116.22216797 138.3671875 C-117.72484889 110.65955593 -117.72484889 110.65955593 -109.83203125 101.859375 C-109.15261475 101.18745117 -109.15261475 101.18745117 -108.45947266 100.50195312 C-106.1739452 98.14990145 -104.20408452 95.55956186 -102.17431641 92.98706055 C-100.51788292 90.89755835 -98.8304725 88.83800879 -97.12890625 86.78515625 C-94.53313256 83.65259498 -91.98290665 80.48617399 -89.4375 77.3125 C-84.72844807 71.56556959 -79.69240582 66.14879493 -74.61328125 60.73095703 C-72.93860537 58.93412713 -71.28031959 57.12326164 -69.625 55.30859375 C-59.66467493 44.41587996 -59.66467493 44.41587996 -54.0703125 39.7578125 C-51.92893874 37.93966497 -49.88266853 36.03492695 -47.83520508 34.11230469 C-41.78787283 28.45377799 -35.44526614 23.30154724 -28.80517578 18.35058594 C-26.82916507 16.87218571 -24.86541083 15.37835182 -22.90234375 13.8828125 C-21.49766923 12.8173478 -20.09272515 11.75223838 -18.6875 10.6875 C-18.04200195 10.19580322 -17.39650391 9.70410645 -16.73144531 9.19750977 C-4.51397443 0 -4.51397443 0 0 0 Z " fill="#00B1F9" transform="translate(228,183)"/>
<path d="M0 0 C0.99 0.33 1.98 0.66 3 1 C3.84375 2.98681641 3.84375 2.98681641 4.5 5.6015625 C4.74588867 6.55901367 4.99177734 7.51646484 5.24511719 8.50292969 C5.61878418 10.04835449 5.61878418 10.04835449 6 11.625 C6.26200195 12.6759082 6.52400391 13.72681641 6.79394531 14.80957031 C7.54776472 17.86896938 8.2793719 20.93263083 9 24 C9.17595703 24.74282227 9.35191406 25.48564453 9.53320312 26.25097656 C13.06952281 41.49083046 14.20246014 56.81515827 14.40640259 72.41995239 C14.42689175 73.83161331 14.45532365 75.24318465 14.49227905 76.6545105 C14.71086367 85.72273822 14.02193103 92.34986861 9 100 C8.43623657 100.90069214 8.43623657 100.90069214 7.86108398 101.81958008 C-2.61227626 117.89072998 -15.70640717 132.25789993 -29 146 C-29.80695313 146.83660156 -30.61390625 147.67320312 -31.4453125 148.53515625 C-35.08530885 152.23938783 -38.87449266 155.70952495 -42.8125 159.09375 C-45.35511399 161.30945648 -47.83110198 163.59098592 -50.3125 165.875 C-55.71515424 170.7959361 -61.30442944 175.42426167 -67 180 C-68.16732902 180.9588296 -69.33396095 181.91850832 -70.5 182.87890625 C-76.86093207 188.0870345 -83.31409493 193.07809109 -90.125 197.6875 C-91.04780762 198.3206311 -91.04780762 198.3206311 -91.98925781 198.96655273 C-95.28965143 201.15026155 -98.04481565 202.55970589 -102 203 C-101.36323217 198.10130099 -100.46090533 193.37417295 -99.3125 188.5625 C-99.14169922 187.84658691 -98.97089844 187.13067383 -98.79492188 186.39306641 C-92.52279121 160.26469051 -92.52279121 160.26469051 -89.90234375 151.08203125 C-88.22797312 145.19122932 -86.88656902 139.49245979 -85.9609375 133.4375 C-85.77023682 132.24680908 -85.57953613 131.05611816 -85.38305664 129.8293457 C-85.01229669 127.46279618 -84.67121152 125.09133881 -84.36499023 122.71557617 C-82.44503962 110.61100437 -74.99031996 104.6135908 -66.10546875 96.90625 C-63.50823604 94.55476658 -61.24780366 92.03987647 -58.9921875 89.36328125 C-57.4580522 87.54337564 -55.90291116 85.75745061 -54.3203125 83.98046875 C-46.48777239 75.12268634 -39.64451094 65.77058288 -33 56 C-32.23357178 54.8850415 -32.23357178 54.8850415 -31.45166016 53.74755859 C-24.38410048 43.4575995 -17.90875331 32.9948726 -12 22 C-11.63358398 21.32211426 -11.26716797 20.64422852 -10.88964844 19.94580078 C-7.97138531 14.54203532 -5.05717282 9.1391619 -2.3359375 3.6328125 C-1 1 -1 1 0 0 Z " fill="#00A1F8" transform="translate(669,401)"/>
<path d="M0 0 C6.96282637 1.18282042 13.36523004 2.99169706 19.9375 5.5625 C20.84064941 5.91256104 21.74379883 6.26262207 22.67431641 6.62329102 C32.00710775 10.30283072 41.06944694 14.43471069 50 19 C50.73637695 19.36738281 51.47275391 19.73476562 52.23144531 20.11328125 C54.34397918 21.18325366 56.42348635 22.29946463 58.5 23.4375 C59.42594971 23.90337524 59.42594971 23.90337524 60.37060547 24.37866211 C64.01906127 26.47996174 65.5093581 28.57449668 66.75390625 32.44921875 C67.20694971 34.29061577 67.61980514 36.14219398 68 38 C68.2067334 39.00313232 68.4134668 40.00626465 68.62646484 41.03979492 C69.28519284 44.477483 69.8721316 47.92073979 70.4375 51.375 C70.64850342 52.65560303 70.85950684 53.93620605 71.0769043 55.25561523 C72.77891901 65.82307978 74.10959646 76.42779887 75.3125 87.0625 C75.39958221 87.81577576 75.48666443 88.56905151 75.5763855 89.34515381 C76.63330091 98.5837235 77.24573571 107.6873243 77 117 C74.23400983 113.68373164 71.95161652 110.38261152 69.86328125 106.60546875 C69.2899707 105.57421875 68.71666016 104.54296875 68.12597656 103.48046875 C67.5275293 102.39378906 66.92908203 101.30710937 66.3125 100.1875 C65.6947168 99.07632813 65.07693359 97.96515625 64.44042969 96.8203125 C62.11986786 92.64596157 59.80815129 88.46680118 57.50341797 84.28369141 C56.63864259 82.71446945 55.77203429 81.14625533 54.90307617 79.5793457 C54.15213802 78.22517669 53.40595333 76.86835726 52.6652832 75.50854492 C50.93940791 72.16912692 50.93940791 72.16912692 48 70 C47.73823975 70.70688965 47.47647949 71.4137793 47.20678711 72.14208984 C45.9217008 75.18542797 44.38965004 77.89329523 42.69140625 80.7265625 C42.03164795 81.83273926 41.37188965 82.93891602 40.69213867 84.07861328 C39.98242692 85.26084294 39.27254409 86.44296991 38.5625 87.625 C37.1101427 90.05098841 35.66003598 92.4783138 34.2109375 94.90625 C33.85092148 95.50889679 33.49090546 96.11154358 33.11997986 96.73245239 C30.9028599 100.45359552 28.73285883 104.19750026 26.6015625 107.96875 C25.85410767 109.28818604 25.85410767 109.28818604 25.09155273 110.63427734 C24.17475578 112.26063145 23.26507365 113.89102262 22.36352539 115.52587891 C19.33016615 120.88994462 19.33016615 120.88994462 16 122 C15.98582031 120.85273438 15.97164063 119.70546875 15.95703125 118.5234375 C15.246395 88.8776122 10.49737013 58.58742018 3.90234375 29.7109375 C3.71631088 28.89237274 3.53027802 28.07380798 3.33860779 27.23043823 C2.40088675 23.11262962 1.44741832 18.99960815 0.46557617 14.89208984 C0.11474114 13.3812616 -0.23577798 11.87035995 -0.5859375 10.359375 C-0.75855606 9.66049164 -0.93117462 8.96160828 -1.10902405 8.24154663 C-1.55615234 6.28027344 -1.55615234 6.28027344 -2 3 C-1.34 2.01 -0.68 1.02 0 0 Z " fill="#0092D7" transform="translate(493,220)"/>
<path d="M0 0 C3.625 0.375 3.625 0.375 7 1 C7 1.33 7 1.66 7 2 C5.02 2.33 3.04 2.66 1 3 C1.33 7.29 1.66 11.58 2 16 C-0.05401126 12.91898312 -0.58133448 11.02441289 -1.25 7.4375 C-1.44078125 6.46683594 -1.6315625 5.49617187 -1.828125 4.49609375 C-1.91320312 3.26052734 -1.91320312 3.26052734 -2 2 C-1.34 1.34 -0.68 0.68 0 0 Z " fill="#00A3E8" transform="translate(493,220)"/>
</svg>
